<svg width="100%" height="100%" viewBox="0 0 89 76" fill="none" xmlns="http://www.w3.org/2000/svg">
<path d="M53.4521 72.1204C61.0185 69.464 85.6678 55.0727 77.7845 27.0023" stroke="#16A085" stroke-miterlimit="10" stroke-linecap="round"/>
<path d="M60.9053 73.4821L53.3502 72.2845L57.4016 66.1412" stroke="#16A085" stroke-linecap="round" stroke-linejoin="round"/>
<path d="M22.523 24.3764C22.4984 24.4144 22.4257 24.438 22.305 24.4473C22.186 24.4644 22.0804 24.4296 21.9884 24.3428C21.9103 24.2449 21.8524 24.1264 21.8146 23.9872C21.7769 23.848 21.7353 23.6524 21.6899 23.4003C21.6786 23.1164 21.6804 22.7399 21.6951 22.2705C21.7099 21.8012 21.7255 21.2785 21.7421 20.7025C21.7649 20.117 21.7851 19.5197 21.8029 18.9107C21.8151 18.6219 21.8208 18.3794 21.82 18.1832C21.8271 17.9855 21.8284 17.838 21.8241 17.7407C21.826 17.634 21.8269 17.5806 21.8269 17.5806C21.8224 17.598 21.814 17.6161 21.8017 17.6351C21.7972 17.6524 21.7927 17.6697 21.7882 17.687C21.7837 17.7043 21.7792 17.7217 21.7747 17.739C21.7747 17.739 21.7649 17.7697 21.7452 17.8311C21.7334 17.8909 21.6985 17.9964 21.6407 18.1477C21.5981 18.255 21.5627 18.377 21.5345 18.5138C21.5064 18.6507 21.4474 18.835 21.3576 19.0667C21.2823 19.3281 21.1988 19.628 21.1072 19.9664C21.0156 20.3049 20.9341 20.5757 20.8628 20.779C20.8263 20.8767 20.7913 20.9619 20.7576 21.0344C20.7318 21.1054 20.7152 21.162 20.7079 21.2045C20.6949 21.2972 20.6665 21.4137 20.6227 21.5538C20.5789 21.694 20.5225 21.8328 20.4535 21.9701C20.4215 22.0505 20.3764 22.146 20.3181 22.2565C20.2676 22.3654 20.2233 22.4648 20.1852 22.5547C20.1454 22.6367 20.1255 22.6778 20.1255 22.6778C20.1198 22.7281 20.0847 22.8132 20.0203 22.9332C19.9558 23.0533 19.8743 23.1892 19.7757 23.341C19.6833 23.4833 19.5853 23.6187 19.4817 23.747C19.2544 24.0243 19.0566 24.2095 18.8882 24.3025C18.7277 24.3939 18.5141 24.3698 18.2472 24.2302C18.1189 24.1266 18.0101 24.0189 17.9209 23.907C17.83 23.7873 17.7604 23.614 17.7122 23.387C17.664 23.1601 17.6357 22.8349 17.6275 22.4113C17.6274 22.1414 17.6279 21.8551 17.6289 21.5523C17.6378 21.2477 17.6492 20.955 17.6631 20.674C17.6753 20.3851 17.688 20.137 17.7012 19.9298C17.7205 19.713 17.7336 19.563 17.7405 19.4798C17.7223 19.2792 17.7046 19.1766 17.6873 19.1721C17.6683 19.1598 17.6384 19.2111 17.5974 19.3262C17.5609 19.4239 17.4974 19.6255 17.407 19.931C17.3165 20.2364 17.2165 20.593 17.1068 21.0007C17.005 21.4068 16.9071 21.812 16.8132 22.2164C16.6187 22.8793 16.4544 23.4336 16.3201 23.8792C16.1858 24.3249 16.0741 24.684 15.9848 24.9565C15.8938 25.2212 15.8217 25.4205 15.7684 25.5545C15.7246 25.6947 15.6881 25.7924 15.6589 25.8477C15.6393 25.9091 15.6233 25.9493 15.611 25.9683C15.4919 25.9854 15.3786 25.9523 15.2709 25.8688C15.1632 25.7854 15.0669 25.6791 14.9822 25.5499C14.9499 25.475 14.9207 25.3953 14.8946 25.3109C14.8685 25.2265 14.8564 25.1309 14.8582 25.0242C14.8662 24.908 14.8882 24.7806 14.9242 24.6421C14.9827 24.417 15.0439 24.2241 15.1079 24.0633C15.1719 23.9025 15.2122 23.8039 15.2291 23.7676C15.2566 23.7045 15.2754 23.6392 15.2855 23.5716C15.2957 23.504 15.2989 23.442 15.2951 23.3855C15.3242 23.3303 15.3621 23.22 15.4088 23.0547C15.4632 22.8877 15.5152 22.709 15.5647 22.5185C15.6057 22.4035 15.6618 22.2444 15.7331 22.0411C15.8028 21.83 15.8777 21.6055 15.958 21.3676C16.0366 21.1219 16.1038 20.8991 16.1594 20.6991C16.3723 20.0078 16.5414 19.4566 16.6667 19.0455C16.7903 18.6267 16.8844 18.3572 16.9488 18.2372C16.9953 18.1864 17.0264 18.1021 17.0423 17.9843C17.0643 17.8569 17.0851 17.7625 17.1048 17.7011C17.1677 17.4587 17.239 17.2554 17.3186 17.0913C17.4044 16.9176 17.4903 16.8217 17.5764 16.8034C17.639 16.7901 17.7223 16.7969 17.8261 16.8239C17.9379 16.8492 18.0498 16.895 18.162 16.9611C18.2697 17.0445 18.3771 17.1648 18.4841 17.322C18.5973 17.4697 18.6595 17.6855 18.6708 17.9693C18.6895 18.0962 18.7024 18.253 18.7094 18.4396C18.7147 18.6184 18.7199 18.7972 18.7252 18.976C18.7305 19.1548 18.73 19.3062 18.7236 19.4303C18.7359 19.7957 18.737 20.1472 18.7269 20.4846C18.723 20.8126 18.7181 21.1163 18.712 21.3956C18.706 21.675 18.705 21.9206 18.7091 22.1323C18.7116 22.3363 18.7183 22.5025 18.7293 22.6311C18.748 22.7579 18.7812 22.8368 18.8286 22.8676C18.8537 22.8704 18.8834 22.8559 18.9175 22.8241C18.9578 22.7828 18.9864 22.7441 19.0032 22.7078C19.0368 22.6352 19.0666 22.5634 19.0924 22.4925C19.1182 22.4216 19.1524 22.3325 19.1951 22.2253C19.2837 22.0266 19.3729 21.8113 19.4627 21.5796C19.5586 21.3384 19.6681 21.0452 19.791 20.7001C19.9201 20.3455 20.0694 19.913 20.239 19.4026C20.4069 18.8844 20.6103 18.2441 20.849 17.4818C20.9708 17.1697 21.0847 16.8592 21.1908 16.5504C21.2969 16.2416 21.4007 15.9987 21.5021 15.8217C21.5929 15.6716 21.7285 15.5978 21.909 15.6003C22.0973 15.6012 22.2824 15.6641 22.4643 15.789C22.6463 15.9139 22.7692 16.0881 22.8331 16.3117C22.8642 16.4196 22.8823 16.6202 22.8874 16.9136C22.8987 17.1974 22.8978 17.5207 22.8849 17.8833C22.8721 18.2459 22.8458 18.6032 22.8061 18.9551C22.8109 19.0931 22.8092 19.2775 22.801 19.5083C22.7928 19.739 22.7815 19.9745 22.7671 20.2147C22.7527 20.455 22.7373 20.6709 22.7208 20.8625C22.7226 21.1402 22.7205 21.3615 22.7147 21.5263C22.7166 21.6895 22.7392 21.8728 22.7825 22.0762C22.7387 22.2164 22.73 22.4063 22.7564 22.6461C22.7828 22.8858 22.8226 23.1309 22.8759 23.3813C22.9094 23.6932 22.8886 23.9225 22.8135 24.0693C22.7462 24.2145 22.6961 24.2865 22.6632 24.2853C22.5956 24.2751 22.5489 24.3055 22.523 24.3764ZM24.9859 23.1782C24.8842 23.1998 24.7979 23.1977 24.7269 23.1719C24.6639 23.1444 24.5818 23.1046 24.4807 23.0525C24.2988 22.9276 24.1417 22.7851 24.0096 22.6251C23.8853 22.4634 23.8207 22.3135 23.8159 22.1755C23.8261 22.1079 23.8214 22.0476 23.8019 21.9945C23.7886 21.9319 23.782 21.9006 23.782 21.9006C23.7345 21.8698 23.7178 21.8488 23.7318 21.8376C23.7441 21.8186 23.7548 21.7918 23.7638 21.7572C23.8107 21.7472 23.8172 21.7009 23.7833 21.6181C23.7543 21.5588 23.7495 21.4208 23.7689 21.2041C23.7944 20.9778 23.8459 20.7583 23.9233 20.5456C23.9537 20.4573 24.0025 20.3406 24.0698 20.1955C24.1354 20.0425 24.2097 19.8917 24.2926 19.7433C24.3817 19.5853 24.4649 19.4572 24.5422 19.359C24.7029 19.1531 24.8546 18.9818 24.9973 18.8451C25.1478 18.7068 25.305 18.5998 25.4688 18.5241C25.6327 18.4483 25.8046 18.3914 25.9846 18.3531C26.1724 18.3132 26.3383 18.3434 26.4822 18.4436C26.6789 18.4836 26.8265 18.5626 26.9252 18.6807C27.0317 18.7971 27.1192 18.9584 27.1876 19.1647C27.261 19.3945 27.299 19.689 27.3018 20.0483C27.3029 20.3997 27.1943 20.8317 26.9761 21.3443C26.8404 21.6676 26.6952 21.9275 26.5407 22.1239C26.3862 22.3203 26.2096 22.5091 26.0109 22.6904C25.8699 22.8349 25.7079 22.9388 25.5251 23.0022C25.3423 23.0656 25.1626 23.1243 24.9859 23.1782ZM25.8788 21.4917C26.0193 21.3064 26.1057 21.1163 26.1379 20.9214C26.1779 20.7247 26.2151 20.496 26.2496 20.2351C26.271 20.1815 26.2739 20.0991 26.2584 19.9879C26.2508 19.875 26.2322 19.7685 26.2028 19.6685C26.1717 19.5606 26.131 19.5038 26.0807 19.4981C25.9986 19.4583 25.9257 19.4616 25.862 19.5078C25.7965 19.5463 25.7173 19.6163 25.6244 19.7178C25.4312 19.9633 25.2604 20.2368 25.1118 20.5383C24.9694 20.8303 24.8982 21.1685 24.8981 21.5529C24.9162 21.7535 24.9674 21.8981 25.0516 21.9865C25.142 22.0654 25.2573 22.0695 25.3977 21.9988C25.5442 21.9186 25.7046 21.7495 25.8788 21.4917ZM28.6135 22.1617C28.5314 22.1219 28.4382 22.0681 28.3339 22.0004C28.2373 21.9309 28.1841 21.8154 28.1743 21.654C28.1512 21.4299 28.1418 21.2315 28.146 21.0588C28.1485 20.8784 28.1539 20.6728 28.1621 20.442C28.1578 20.3448 28.1628 20.1761 28.1772 19.9358C28.1994 19.6939 28.2291 19.43 28.2665 19.1439C28.3038 18.8579 28.3484 18.5867 28.4003 18.3304C28.4504 18.0662 28.5022 17.867 28.5555 17.733C28.6249 17.6365 28.7418 17.5707 28.9061 17.5358C29.0783 17.4992 29.2023 17.5056 29.2782 17.5549C29.3793 17.607 29.4333 17.7264 29.4402 17.913C29.4455 18.0918 29.3933 18.3851 29.2837 18.7928C29.2645 18.895 29.2353 19.0075 29.196 19.1304C29.1628 19.2438 29.142 19.3382 29.1335 19.4136C29.1233 19.4812 29.137 19.5069 29.1744 19.4908C29.2031 19.3947 29.2684 19.2786 29.3703 19.1424C29.4706 18.9984 29.5795 18.8567 29.697 18.7172C29.8146 18.5777 29.9268 18.4516 30.0337 18.3389C30.1406 18.2262 30.2151 18.1532 30.257 18.1197C30.3113 18.0673 30.3751 18.021 30.4484 17.9809C30.5278 17.9313 30.5815 17.8953 30.6095 17.873C30.7711 17.7487 30.9601 17.6758 31.1764 17.6544C31.3988 17.6235 31.546 17.6617 31.6179 17.7691C31.639 17.83 31.6725 17.872 31.7183 17.895C31.7719 17.9163 31.7987 17.927 31.7987 17.927C31.83 17.9203 31.8481 17.9287 31.8531 17.9522C31.8659 17.974 31.8723 17.9849 31.8723 17.9849C31.884 18.0397 31.8458 18.1296 31.7579 18.2546C31.6778 18.378 31.576 18.4569 31.4524 18.4913C31.3524 18.5207 31.2665 18.5594 31.1949 18.6074C31.1233 18.6553 31.0377 18.7144 30.9382 18.7846C30.6774 19.02 30.4399 19.23 30.2256 19.4145C30.0191 19.5975 29.8198 19.8525 29.6276 20.1796C29.5861 20.2538 29.5399 20.325 29.4889 20.3931C29.438 20.4612 29.392 20.5527 29.351 20.6678C29.3202 20.7152 29.2994 20.8096 29.2885 20.9509C29.2777 21.0923 29.2699 21.2289 29.2652 21.3607C29.2667 21.4831 29.2699 21.556 29.2749 21.5795C29.2749 21.5795 29.2715 21.6211 29.2647 21.7044C29.2561 21.7798 29.232 21.8585 29.1922 21.9406C29.1249 22.0858 29.0476 22.184 28.9604 22.2352C28.881 22.2848 28.7653 22.2603 28.6135 22.1617ZM33.918 21.5863C33.4876 21.6778 33.1284 21.6233 32.8405 21.4228C32.5603 21.2206 32.3653 20.8613 32.2556 20.3448C32.1957 20.0631 32.1808 19.7432 32.2111 19.3851C32.2491 19.0253 32.3201 18.6667 32.424 18.3093C32.5358 17.9502 32.6724 17.6308 32.8338 17.3512C32.9935 17.0637 33.169 16.8505 33.3603 16.7117C33.4303 16.656 33.5066 16.6111 33.5894 16.5772C33.6783 16.5337 33.7658 16.5029 33.8519 16.4846C33.9458 16.4646 34.0491 16.4508 34.162 16.4432C34.2811 16.4261 34.3956 16.4262 34.5057 16.4437C34.6973 16.4603 34.8762 16.5326 35.0425 16.6609C35.2166 16.7874 35.3353 16.9994 35.3985 17.2967C35.4151 17.375 35.4256 17.4627 35.4299 17.56C35.4326 17.6494 35.4235 17.7413 35.4027 17.8357C35.3558 18.1155 35.2517 18.3953 35.0903 18.6749C34.9368 18.9529 34.7565 19.163 34.5495 19.3052C34.4936 19.3498 34.436 19.3865 34.3767 19.4155C34.3236 19.435 34.2657 19.4514 34.2031 19.4647C34.0388 19.4996 33.8851 19.5077 33.7421 19.489C33.6069 19.4687 33.4763 19.431 33.3501 19.3761L33.2387 19.3139L33.205 19.4437C33.1818 19.6041 33.1693 19.7376 33.1674 19.8443C33.1734 19.9493 33.1814 20.0253 33.1914 20.0723C33.2113 20.1662 33.236 20.2632 33.2655 20.3632C33.2932 20.4555 33.3334 20.5287 33.3858 20.583C33.4254 20.6155 33.4712 20.6385 33.5231 20.652C33.5829 20.6638 33.6519 20.6614 33.7302 20.6448C33.7771 20.6348 33.8201 20.6257 33.8593 20.6173C33.9046 20.5995 33.942 20.5834 33.9717 20.5689C34.1059 20.5077 34.2085 20.4327 34.2796 20.344C34.3569 20.2458 34.4406 20.1585 34.5306 20.0821L34.5726 20.0486L34.5534 20.0159C34.6714 19.9172 34.7523 19.855 34.7959 19.8294C34.8379 19.7959 34.8689 19.7689 34.8891 19.7482C34.9137 19.7103 34.9456 19.6871 34.9847 19.6788C35.091 19.6399 35.2033 19.6487 35.3216 19.7054C35.4461 19.7525 35.52 19.8309 35.5433 19.9404C35.5533 19.9874 35.5339 20.0692 35.4851 20.1859C35.4441 20.3009 35.3836 20.4201 35.3035 20.5435C35.2295 20.6573 35.1475 20.7525 35.0574 20.8289C35.0356 20.8417 35.0146 20.8584 34.9945 20.879C34.9727 20.8918 34.9517 20.9086 34.9315 20.9292L34.9433 20.9267C34.8928 21.0356 34.8324 21.0975 34.7619 21.1125L34.668 21.1324C34.6484 21.1939 34.5591 21.2742 34.4003 21.3734C34.2431 21.4804 34.0823 21.5514 33.918 21.5863ZM33.9271 18.6278C33.9975 18.6128 34.0576 18.5877 34.1074 18.5526C34.165 18.5158 34.2179 18.476 34.266 18.433C34.4255 18.2601 34.5102 18.0622 34.5201 17.8392C34.53 17.6163 34.4763 17.4601 34.3591 17.3705C34.3385 17.3503 34.3156 17.3388 34.2905 17.336C34.2637 17.3253 34.2346 17.3233 34.2033 17.33C34.1172 17.3483 34.0252 17.3964 33.9273 17.4745C33.8372 17.5509 33.7521 17.6508 33.672 17.7741C33.5919 17.8975 33.5238 18.0387 33.4677 18.1979L33.3675 18.4768C33.3815 18.4657 33.3924 18.4593 33.4002 18.4576C33.4142 18.4464 33.4251 18.44 33.4329 18.4384C33.5033 18.4234 33.5553 18.4369 33.5887 18.4789C33.6222 18.5208 33.6596 18.5619 33.7008 18.6022C33.7499 18.6409 33.8254 18.6494 33.9271 18.6278ZM40.5689 20.0254C40.3185 20.0786 40.076 20.0729 39.8414 20.0083C39.613 19.9341 39.4187 19.8282 39.2586 19.6905C39.0968 19.545 38.9993 19.3939 38.966 19.2374C38.9511 19.167 38.952 19.1136 38.9688 19.0774C38.9935 19.0394 39.0332 19.0146 39.0879 19.003C39.1287 19.0025 39.1798 19.0121 39.2413 19.0317C39.3027 19.0514 39.365 19.0749 39.4281 19.1024C39.5716 19.1619 39.7201 19.1876 39.8738 19.1794C40.0275 19.1713 40.1588 19.1352 40.2679 19.0711C40.3753 18.9992 40.4268 18.9147 40.4225 18.8174C40.4159 18.7861 40.3861 18.7229 40.3332 18.6279C40.2802 18.5328 40.2203 18.4433 40.1534 18.3594C39.8962 18.1114 39.7167 17.8633 39.6149 17.6151C39.5114 17.359 39.4235 17.0996 39.3513 16.8369C39.3281 16.7273 39.3531 16.5952 39.4266 16.4406C39.4984 16.2781 39.5945 16.1145 39.7149 15.9499C39.8493 15.7741 40.001 15.6028 40.17 15.436C40.3468 15.2676 40.5239 15.1195 40.7012 14.9919C40.8786 14.8642 41.0321 14.7784 41.1618 14.7345C41.3027 14.7046 41.453 14.6808 41.6128 14.6632C41.7788 14.6361 41.8942 14.6402 41.9589 14.6755C42.0868 14.7383 42.2185 14.8575 42.3539 15.0332C42.4894 15.2088 42.5713 15.3632 42.5996 15.4962C42.6129 15.5588 42.5943 15.6446 42.5438 15.7534C42.4995 15.8528 42.4616 15.9631 42.4302 16.0843C42.4105 16.1457 42.3956 16.2102 42.3854 16.2778C42.3752 16.3454 42.3612 16.4138 42.3432 16.4831C42.3195 16.6026 42.2434 16.6679 42.1149 16.6788C41.9925 16.6803 41.8696 16.641 41.7463 16.5609C41.6213 16.473 41.5438 16.3586 41.5139 16.2177C41.4889 16.1003 41.5025 15.9911 41.5546 15.8901C41.6068 15.789 41.6295 15.7229 41.6229 15.6916C41.6195 15.6759 41.6092 15.6658 41.5919 15.6613C41.5746 15.6568 41.5464 15.6587 41.5072 15.6671C41.4525 15.6787 41.3675 15.7213 41.2522 15.7949C41.1432 15.8589 41.0304 15.9442 40.9141 16.0508C40.7977 16.1573 40.6963 16.277 40.6101 16.4098C40.5501 16.5125 40.5035 16.6206 40.4704 16.7339C40.4434 16.8378 40.4416 16.9445 40.4648 17.0541C40.4881 17.1637 40.5351 17.2886 40.6059 17.429C40.6828 17.5598 40.7586 17.6664 40.8333 17.7487C40.8523 17.761 40.8849 17.799 40.9312 17.8628C40.9836 17.9171 41.0433 17.9862 41.1102 18.0701C41.5261 18.6033 41.6671 19.0354 41.533 19.3666C41.4067 19.696 41.0853 19.9156 40.5689 20.0254ZM44.2018 18.9588C44.1129 19.0022 44.0014 18.9973 43.8674 18.944C43.7334 18.8907 43.607 18.8153 43.4881 18.7179C43.3693 18.6205 43.2881 18.5273 43.2447 18.4384C43.1785 18.2807 43.1439 18.0795 43.1409 17.8348C43.1442 17.5805 43.1801 17.3071 43.2487 17.0144C43.3157 16.7139 43.4157 16.4146 43.5486 16.1165C43.6798 15.8105 43.8404 15.5269 44.0302 15.2657C44.2201 15.0046 44.4395 14.7862 44.6884 14.6106C44.7925 14.523 44.8663 14.4664 44.91 14.4408C44.9519 14.4073 44.9989 14.3974 45.0508 14.4109C45.1011 14.4165 45.1916 14.4382 45.3222 14.4758C45.4385 14.4839 45.5563 14.4997 45.6759 14.5234C45.8015 14.5375 45.9199 14.5942 46.0309 14.6933C46.1185 14.7973 46.1904 14.9047 46.2466 15.0154C46.3029 15.1262 46.3586 15.2534 46.4136 15.3971C46.5178 15.5794 46.5687 15.7035 46.5664 15.7694C46.5624 15.8275 46.5481 15.8756 46.5234 15.9135C46.4774 16.0051 46.4701 16.0475 46.5014 16.0409C46.5014 16.0409 46.5008 16.0574 46.4996 16.0903C46.5046 16.1138 46.4973 16.1563 46.4776 16.2177C46.4595 16.4015 46.4514 16.575 46.4533 16.7381C46.4614 16.8918 46.4936 17.024 46.5499 17.1347C46.6491 17.2936 46.7529 17.3778 46.8612 17.3875C46.9775 17.3955 47.1033 17.2951 47.2389 17.0864C47.3117 17.0055 47.4012 16.9456 47.5074 16.9066C47.612 16.8599 47.6709 16.8678 47.6842 16.9304C47.6842 16.9304 47.6984 16.9396 47.7269 16.9581C47.7537 16.9688 47.7827 16.9708 47.814 16.9641C47.8532 16.9558 47.8771 16.9916 47.8859 17.0715C47.8931 17.1436 47.8949 17.2291 47.8914 17.328C47.8879 17.4269 47.8732 17.5118 47.8474 17.5827C47.755 17.7251 47.7129 17.8158 47.7212 17.8549C47.7212 17.8549 47.7089 17.8739 47.6842 17.9118C47.6658 17.9403 47.631 17.9886 47.5801 18.0567C47.4575 18.1727 47.2867 18.254 47.0676 18.3005C46.8563 18.3455 46.6828 18.3373 46.5472 18.2762C46.4115 18.2151 46.2717 18.1344 46.1277 18.0341C45.9915 17.9322 45.8961 17.8298 45.8415 17.7269L45.7579 17.622L45.4649 17.9174C45.3971 18.0218 45.3487 18.1016 45.3195 18.1569C45.2887 18.2043 45.261 18.247 45.2363 18.2849C45.2195 18.3212 45.1979 18.3544 45.1716 18.3846C45.1531 18.413 45.1282 18.4306 45.0969 18.4373C45.0656 18.4439 45.0383 18.4497 45.0148 18.4547C44.9913 18.4597 44.9796 18.4622 44.9796 18.4622C44.9862 18.4935 44.9406 18.5482 44.8427 18.6262C44.7431 18.6965 44.631 18.7653 44.5063 18.8327C44.3815 18.9001 44.2801 18.9421 44.2018 18.9588ZM44.2387 17.9204C44.2857 17.9104 44.3503 17.8681 44.4325 17.7933C44.521 17.7091 44.6147 17.6115 44.7138 17.5004C44.8129 17.3894 44.9002 17.2809 44.9758 17.1748C45.0593 17.0671 45.1186 16.9809 45.1539 16.9162C45.1786 16.8782 45.203 16.8199 45.2271 16.7411C45.2591 16.6607 45.2967 16.5873 45.3398 16.5209C45.4766 16.2792 45.5559 16.0946 45.5779 15.9673C45.5983 15.8321 45.5504 15.7032 45.4344 15.5807C45.3848 15.5012 45.3357 15.4626 45.2871 15.4648C45.2385 15.4669 45.1465 15.5151 45.0111 15.6093C44.9288 15.684 44.8462 15.7957 44.7633 15.9441C44.6804 16.0926 44.5968 16.2576 44.5127 16.4391C44.4364 16.6188 44.3688 16.8009 44.3098 16.9852C44.2509 17.1695 44.2042 17.3348 44.1699 17.4811C44.1434 17.6258 44.1385 17.7372 44.1551 17.8155C44.1617 17.8468 44.1754 17.8725 44.196 17.8927C44.2245 17.9111 44.2387 17.9204 44.2387 17.9204ZM49.713 18.7442C49.3279 18.8179 49.0581 18.7608 48.9037 18.5728C48.7587 18.3909 48.6764 18.1385 48.6568 17.8155C48.6722 17.6569 48.6713 17.518 48.6542 17.399C48.6432 17.2705 48.6618 17.1847 48.7099 17.1418C48.7099 17.1418 48.7113 17.1292 48.7141 17.1041C48.7248 17.0773 48.7159 17.0546 48.6874 17.0361C48.6658 16.9344 48.6711 16.7861 48.7033 16.5911C48.7089 16.5408 48.7169 16.4819 48.727 16.4143C48.7434 16.3372 48.7515 16.2987 48.7515 16.2987C48.6991 16.2444 48.6883 16.1935 48.7191 16.1461C48.7499 16.0987 48.7815 16.0551 48.814 16.0155C48.8526 15.9664 48.8474 15.9225 48.7983 15.8839C48.776 15.8559 48.7806 15.7813 48.8121 15.6601C48.8419 15.5311 48.8787 15.3965 48.9225 15.2564C48.9664 15.1162 48.9925 15.0084 49.001 14.933C48.9977 14.9173 49.0056 14.8584 49.0248 14.7562C49.044 14.654 49.0676 14.5344 49.0958 14.3976C49.1239 14.2607 49.1507 14.1365 49.176 14.0247C49.2092 13.9114 49.2302 13.8374 49.2392 13.8027C49.3092 13.747 49.2721 13.7263 49.1279 13.7405C48.9837 13.7548 48.8342 13.7825 48.6793 13.8236C48.4351 13.8673 48.237 13.8972 48.085 13.9131C47.9408 13.9274 47.8159 13.9172 47.7104 13.8824C47.5932 13.7928 47.554 13.6661 47.5928 13.5025C47.63 13.331 47.726 13.2247 47.8808 13.1836C47.9809 13.1542 48.0583 13.1337 48.1131 13.122C48.1757 13.1087 48.2531 13.0882 48.3454 13.0604C48.4438 13.0231 48.5961 12.9703 48.8024 12.9019L49.391 12.7277L49.3838 12.5207C49.4248 12.4056 49.4537 12.33 49.4705 12.2937C49.4874 12.2574 49.4964 12.2228 49.4975 12.1898C49.497 12.149 49.4946 12.08 49.4903 11.9828C49.4903 11.9828 49.5122 11.9127 49.5561 11.7725C49.5982 11.6245 49.6121 11.4784 49.5978 11.3342C49.6585 11.1578 49.7107 10.9995 49.7545 10.8593C49.7967 10.7113 49.8222 10.62 49.8312 10.5854C49.9227 10.3614 50.0294 10.2284 50.1512 10.1861C50.2809 10.1422 50.4128 10.1469 50.5468 10.2002C50.6255 10.2243 50.7029 10.261 50.7788 10.3103C50.853 10.3518 50.9079 10.4178 50.9436 10.5084C50.9775 10.5912 50.9664 10.7121 50.9103 10.8713C50.9013 10.9059 50.8903 10.9696 50.8773 11.0623C50.8626 11.1472 50.8533 11.2187 50.8493 11.2768C50.8139 11.3416 50.7744 11.444 50.7306 11.5842C50.6929 11.7149 50.6757 11.8453 50.6788 11.9755C50.6445 12.1219 50.6228 12.2123 50.6138 12.247C50.6048 12.2816 50.5847 12.3022 50.5534 12.3089C50.5857 12.3838 50.6409 12.413 50.7192 12.3963C50.7958 12.3719 50.9232 12.3366 51.1015 12.2905C51.2469 12.2433 51.3453 12.206 51.3967 12.1787C51.4543 12.1419 51.5264 12.1348 51.613 12.1573C51.6638 12.2037 51.7008 12.2817 51.7241 12.3913C51.7535 12.4913 51.7634 12.5956 51.7537 12.7039C51.7424 12.8045 51.7118 12.8723 51.662 12.9075C51.6229 12.9158 51.5457 12.9567 51.4305 13.0303C51.3215 13.0943 51.1778 13.1494 50.9995 13.1955L50.3898 13.3864L50.2751 13.8279C50.242 13.9413 50.215 14.0452 50.1941 14.1396C50.1716 14.2261 50.1542 14.2789 50.1419 14.2979C50.1519 14.3448 50.1395 14.4211 50.1047 14.5266C50.0777 14.6305 50.0484 14.7431 50.0169 14.8643C49.9983 15.0073 49.9693 15.1402 49.93 15.2631C49.8985 15.3842 49.8827 15.4448 49.8827 15.4448C49.8514 15.4515 49.8408 15.4783 49.8507 15.5253C49.9098 15.6108 49.9131 15.6838 49.8604 15.744C49.8263 15.7758 49.7986 15.8185 49.7772 15.8721C49.7621 15.9162 49.7545 15.9383 49.7545 15.9383C49.7925 15.9629 49.8047 16.0012 49.7912 16.0532C49.7855 16.1034 49.7729 16.1593 49.7532 16.2207C49.7665 16.2833 49.7661 16.3775 49.7519 16.5032C49.7455 16.6272 49.7336 16.7442 49.7161 16.8543C49.7539 16.9935 49.7808 17.0818 49.797 17.1193C49.8131 17.1567 49.836 17.1682 49.8656 17.1537C49.9064 17.1532 49.9612 17.1416 50.03 17.1188C50.0987 17.096 50.1488 17.0813 50.1801 17.0746C50.2858 16.9949 50.2892 17.2804 50.1904 17.9312C50.1068 18.1535 50.0157 18.3405 49.9171 18.4923C49.8201 18.6519 49.7521 18.7359 49.713 18.7442ZM52.3503 17.239C52.2744 17.1897 52.2075 17.1058 52.1496 16.9872C52.0995 16.867 52.0659 16.7474 52.0488 16.6284C52.03 16.5015 52.0296 16.4034 52.0476 16.3342C52.0343 16.2716 52.0321 16.223 52.0411 16.1883C52.0563 16.1442 52.0566 16.1073 52.0421 16.0777C52.0277 16.0481 52.0238 15.9916 52.0307 15.9084C52.0375 15.8251 52.0452 15.7458 52.0537 15.6704C52.0819 15.5336 52.1104 15.3598 52.1392 15.1492C52.1664 14.9308 52.1936 14.7124 52.2208 14.494C52.2463 14.2677 52.2667 14.0753 52.2821 13.9166C52.2957 13.7501 52.3032 13.6504 52.3043 13.6174C52.2844 13.5235 52.3362 13.4594 52.4597 13.4249C52.547 13.3737 52.6687 13.3887 52.8251 13.4699C52.9814 13.5512 53.112 13.6461 53.2168 13.7547C53.2927 13.804 53.3337 13.8812 53.3397 13.9862C53.3456 14.0913 53.3255 14.2469 53.2794 14.453C53.2614 14.5222 53.2447 14.6362 53.2294 14.7948C53.2202 14.944 53.2177 15.0672 53.222 15.1644C53.204 15.2337 53.1841 15.332 53.162 15.4594C53.1462 15.5772 53.1335 15.6903 53.1238 15.7987C53.1164 15.8412 53.1166 15.9188 53.1242 16.0317C53.1302 16.1368 53.1331 16.2466 53.1329 16.3611C53.1327 16.4757 53.1197 16.5684 53.0939 16.6393C53.0917 16.9751 53.0064 17.1895 52.838 17.2826C52.6775 17.3739 52.515 17.3594 52.3503 17.239ZM52.6175 12.2627C52.5181 12.2184 52.4358 12.1582 52.3706 12.0821C52.3115 11.9965 52.2706 11.9193 52.2478 11.8506C52.2328 11.7802 52.2315 11.7355 52.2438 11.7165C52.3038 11.6138 52.3461 11.4862 52.371 11.3337C52.4036 11.1795 52.4427 11.0363 52.4882 10.9039C52.4989 10.8771 52.5118 10.8416 52.5269 10.7975C52.5482 10.7439 52.5737 10.7099 52.6034 10.6954C52.684 10.6128 52.8139 10.5893 52.9932 10.6248C53.1803 10.6586 53.3263 10.7298 53.4312 10.8384C53.5332 10.9721 53.5852 11.1206 53.5872 11.2837C53.597 11.4452 53.5497 11.627 53.4455 11.8291C53.3614 12.0105 53.2343 12.1439 53.0643 12.2291C52.8926 12.3065 52.7437 12.3177 52.6175 12.2627ZM55.2986 16.8945C55.0092 16.8415 54.7895 16.7696 54.6393 16.6789C54.4954 16.5786 54.4251 16.479 54.4286 16.3801C54.4343 16.3299 54.4525 16.281 54.4834 16.2336C54.5142 16.1861 54.5969 16.1522 54.7316 16.1317C54.8725 16.1018 55.0951 16.0912 55.3996 16.1001C55.4857 16.0818 55.571 16.0596 55.6554 16.0335C55.7398 16.0074 55.8155 15.979 55.8826 15.9484C55.9576 15.9161 56.016 15.8832 56.058 15.8498C56.0938 15.8258 56.1014 15.8038 56.0807 15.7836C56.0584 15.7556 56.0244 15.7302 55.9786 15.7072C55.939 15.6747 55.8988 15.6587 55.858 15.6592C55.8155 15.6519 55.7787 15.6515 55.7474 15.6582C55.7234 15.6224 55.6799 15.5907 55.6168 15.5633C55.5615 15.5341 55.4937 15.5035 55.4133 15.4716C55.2112 15.3673 55.028 15.2754 54.8639 15.1958C54.6998 15.1161 54.6275 15.0456 54.6472 14.9842C54.6405 14.9529 54.6372 14.9372 54.6372 14.9372C54.6355 14.9294 54.6347 14.9255 54.6347 14.9255C54.5799 14.9371 54.5133 14.8736 54.4347 14.7349C54.3545 14.5884 54.3011 14.4525 54.2745 14.3273C54.2412 14.1708 54.2392 14.0077 54.2686 13.8379C54.3057 13.6664 54.3602 13.4994 54.432 13.3369C54.5116 13.1728 54.5945 13.0243 54.6808 12.8915C54.7996 12.719 54.9269 12.5488 55.063 12.3808C55.2052 12.2034 55.3625 12.0391 55.5348 11.888C55.715 11.7352 55.9197 11.6017 56.149 11.4875C56.2536 11.4408 56.3763 11.4024 56.5171 11.3725C56.658 11.3425 56.7639 11.3405 56.8348 11.3663C56.8891 11.3139 56.9698 11.309 57.077 11.3516C57.1826 11.3864 57.2931 11.4447 57.4086 11.5265C57.5242 11.6083 57.6162 11.695 57.6848 11.7868C57.7047 11.8807 57.7258 11.9989 57.7479 12.1414C57.7762 12.2744 57.7933 12.3935 57.7993 12.4985C57.8052 12.6036 57.7808 12.6619 57.7261 12.6736C57.7261 12.6736 57.7151 12.68 57.6933 12.6928C57.6777 12.6961 57.674 12.7173 57.6823 12.7565C57.699 12.8347 57.6594 12.9372 57.5637 13.0639C57.4366 13.1972 57.3132 13.3093 57.1935 13.4002C57.0738 13.491 56.9729 13.5166 56.8908 13.4768C56.8372 13.4555 56.7875 13.4333 56.7417 13.4103C56.6959 13.3873 56.6524 13.3557 56.6111 13.3154C56.6111 13.3154 56.5961 13.3022 56.5659 13.2759C56.542 13.2401 56.5267 13.2066 56.52 13.1753C56.5134 13.144 56.5193 13.1141 56.5378 13.0856C56.5546 13.0493 56.563 13.0312 56.563 13.0312C56.6509 12.9062 56.7131 12.7948 56.7496 12.6971C56.7939 12.5977 56.8212 12.5142 56.8313 12.4466C56.8398 12.3712 56.8399 12.3139 56.8316 12.2748C56.8216 12.2279 56.8041 12.203 56.7789 12.2001C56.76 12.1878 56.7192 12.1883 56.6566 12.2016C56.6174 12.2099 56.538 12.2595 56.4183 12.3504C56.3064 12.4396 56.19 12.5461 56.0691 12.67C55.9465 12.786 55.8536 12.8875 55.7903 12.9746C55.7707 13.036 55.7547 13.0762 55.7424 13.0952C55.7379 13.1125 55.72 13.1245 55.6887 13.1312C55.682 13.0999 55.6633 13.1079 55.6325 13.1554C55.6017 13.2028 55.5664 13.2676 55.5266 13.3496C55.4867 13.4317 55.4478 13.5177 55.4096 13.6076C55.3715 13.6975 55.3418 13.7692 55.3204 13.8228C55.3276 13.8949 55.3222 13.9656 55.3042 14.0349C55.2923 14.0946 55.297 14.155 55.3181 14.2159C55.3426 14.2925 55.3975 14.3585 55.4829 14.414C55.5683 14.4694 55.6891 14.5378 55.8455 14.6191C56.1626 14.7643 56.4001 14.8815 56.5581 14.9706C56.7239 15.058 56.8417 15.1311 56.9114 15.1899C56.9812 15.2487 57.0314 15.3116 57.062 15.3787C57.2466 15.5931 57.3071 15.801 57.2437 16.0026C57.1785 16.1964 57.0503 16.3627 56.859 16.5015C56.789 16.5572 56.6596 16.6216 56.4706 16.6945C56.2833 16.7752 56.0793 16.8349 55.8585 16.8736C55.6472 16.9185 55.4606 16.9255 55.2986 16.8945ZM59.4896 17.4145C59.4192 17.4295 59.3178 17.4142 59.1854 17.3687C59.0531 17.3233 58.9292 17.2596 58.8136 17.1779C58.7361 17.1208 58.6655 17.0581 58.6019 16.9898C58.5461 16.9199 58.5099 16.8458 58.4933 16.7675C58.475 16.6814 58.4641 16.5529 58.4604 16.3819C58.4568 16.2109 58.4517 16.1098 58.445 16.0785C58.43 16.0081 58.416 15.8843 58.4029 15.7071C58.3959 15.5205 58.389 15.3339 58.382 15.1472C58.3812 14.9511 58.3787 14.8044 58.3744 14.7072C58.3739 14.6664 58.372 14.6382 58.3686 14.6226C58.3731 14.6052 58.3754 14.5966 58.3754 14.5966C58.3862 14.4552 58.3917 14.3273 58.3919 14.2128C58.3983 14.0887 58.3985 13.9742 58.3925 13.8691C58.3981 13.549 58.3968 13.3121 58.3886 13.1584C58.3867 12.9952 58.3959 12.8461 58.4162 12.7109C58.4247 12.6355 58.438 12.5631 58.456 12.4939C58.4678 12.4341 58.4827 12.3696 58.5007 12.3004C58.5187 12.2311 58.5429 12.1524 58.5732 12.0641C58.6365 11.5926 58.6925 11.2209 58.741 10.9489C58.7878 10.669 58.8413 10.4205 58.9014 10.2032C58.9059 10.1859 58.9065 10.1694 58.9032 10.1538C58.9077 10.1364 58.913 10.123 58.9192 10.1136C58.9525 9.88564 59.0093 9.65274 59.0896 9.41485C59.1778 9.17529 59.2894 8.93075 59.4244 8.68121C59.5673 8.43001 59.7337 8.17382 59.9235 7.91264C60.0712 7.79946 60.2167 7.69494 60.3599 7.59907C60.5109 7.50154 60.6607 7.43697 60.8094 7.40537C60.9659 7.37211 61.1143 7.37738 61.2544 7.42119C61.393 7.45718 61.5144 7.50907 61.6188 7.57685C61.7405 7.64913 61.8364 7.73505 61.9067 7.83463C61.9831 7.92471 62.0279 8.00105 62.0412 8.06366C62.0365 8.19551 62.0047 8.35358 61.9457 8.53787C61.8929 8.71267 61.8267 8.88214 61.7471 9.04628C61.6675 9.21042 61.5907 9.34942 61.5167 9.46328C61.4506 9.57548 61.4019 9.63491 61.3706 9.64156C61.2924 9.65819 61.234 9.63379 61.1956 9.56835C61.1633 9.49343 61.1184 9.41709 61.061 9.33933C61.0387 9.31135 61.0125 9.28421 60.9824 9.2579C60.9601 9.22992 60.9347 9.20669 60.9062 9.18821C60.8979 9.14908 60.8994 9.07924 60.9108 8.97869C60.9283 8.86864 60.9287 8.7745 60.9121 8.69624C60.9021 8.64929 60.8764 8.60567 60.8352 8.56537C60.8017 8.52341 60.7657 8.52698 60.727 8.57609C60.6666 8.63801 60.6101 8.6991 60.5574 8.75935C60.511 8.81012 60.4653 8.8648 60.4205 8.9234C60.3757 8.98199 60.3304 9.05707 60.2844 9.14863C60.2446 9.2307 60.1972 9.33482 60.1422 9.46101C60.1209 9.51461 60.0996 9.56822 60.0783 9.62182C60.0553 9.6676 60.0401 9.71172 60.0328 9.75417C60.0008 9.83458 59.9789 9.90466 59.9671 9.96443C59.9614 10.0147 59.9549 10.0611 59.9476 10.1035C59.9419 10.1538 59.9368 10.1876 59.9323 10.2049C59.9278 10.2222 59.9177 10.2325 59.9021 10.2359C59.9066 10.2186 59.8984 10.2571 59.8776 10.3515C59.8646 10.4442 59.8423 10.5512 59.8109 10.6724C59.7962 10.7573 59.7768 10.8391 59.7526 10.9179C59.7285 10.9966 59.701 11.0597 59.6702 11.1071L59.6819 11.1046C59.6819 11.1046 59.6723 11.1557 59.6532 11.258C59.6402 11.3507 59.6241 11.4482 59.6049 11.5504C59.5857 11.6526 59.5778 11.7115 59.5811 11.7272C59.5895 11.7663 59.6576 11.76 59.7857 11.7083C59.9215 11.6548 60.0683 11.595 60.226 11.5288C60.3898 11.4531 60.5187 11.4052 60.6126 11.3853C60.6752 11.372 60.7325 11.3721 60.7844 11.3856C60.8425 11.3896 60.8905 11.4039 60.9285 11.4285C61.0122 11.4762 61.0814 11.5514 61.136 11.6543C61.1967 11.7477 61.2387 11.8492 61.262 11.9588C61.2753 12.0214 61.2283 12.0886 61.1209 12.1605C61.0118 12.2246 60.8427 12.3137 60.6134 12.4279C60.4121 12.5197 60.2404 12.5971 60.0984 12.66C59.9642 12.7213 59.8526 12.7736 59.7637 12.817C59.6748 12.8605 59.6032 12.9084 59.5489 12.9608C59.5008 13.0038 59.4661 13.0521 59.4448 13.1057C59.4296 13.1498 59.4209 13.2048 59.4185 13.2707C59.4252 13.302 59.4271 13.3303 59.4242 13.3554C59.4276 13.371 59.427 13.3875 59.4225 13.4048C59.4213 13.4378 59.419 13.5037 59.4154 13.6026C59.4103 13.6937 59.4045 13.8012 59.3982 13.9253C59.3996 14.0476 59.398 14.1747 59.3933 14.3066C59.3948 14.429 59.3954 14.5474 59.3953 14.662C59.4041 14.7419 59.4073 14.8148 59.405 14.8807C59.4104 14.945 59.4165 14.9928 59.4232 15.0241C59.4002 15.0699 59.3849 15.1712 59.3774 15.3282C59.3777 15.4836 59.3831 15.6051 59.3936 15.6929C59.3969 15.7085 59.401 15.7281 59.406 15.7515C59.4094 15.7672 59.4127 15.7828 59.416 15.7985C59.4227 15.8298 59.4309 15.9262 59.4407 16.0877C59.4599 16.2553 59.4879 16.4252 59.5245 16.5974L59.5616 16.9453C59.5771 17.0565 59.5822 17.1576 59.577 17.2487C59.5813 17.3459 59.5522 17.4012 59.4896 17.4145ZM62.6706 15.1803C62.5454 15.2069 62.4147 15.1693 62.2785 15.0674C62.1424 14.9654 62.051 14.8049 62.0044 14.5858C61.9695 14.4215 61.9519 14.2617 61.9516 14.1063C61.9591 13.9493 61.9662 13.7516 61.9727 13.513C61.9992 13.3683 62.0221 13.1876 62.0415 12.9708C62.067 12.7446 62.0894 12.5231 62.1088 12.3063C62.1343 12.0801 62.1547 11.8876 62.1701 11.729C62.1838 11.5625 62.192 11.4667 62.1949 11.4415C62.1944 11.4007 62.2073 11.3653 62.2336 11.3351C62.2599 11.305 62.3004 11.2841 62.3552 11.2725C62.4335 11.2559 62.531 11.2719 62.6476 11.3207C62.7643 11.3695 62.8735 11.4404 62.975 11.5333C63.0827 11.6168 63.1544 11.7038 63.19 11.7943C63.2066 11.8726 63.2121 11.9369 63.2064 11.9871C63.2086 12.0357 63.2023 12.1025 63.1876 12.1874C63.1713 12.2645 63.1532 12.391 63.1334 12.567C63.1119 12.7351 63.0897 12.977 63.0668 13.2927C63.0501 13.5989 63.0354 14.0109 63.0228 14.5288C63.0175 14.7345 62.9887 14.8878 62.9366 14.9888C62.8845 15.0899 62.7958 15.1537 62.6706 15.1803ZM62.154 9.80629C62.1357 9.72021 62.1451 9.59144 62.1823 9.41996C62.2178 9.24066 62.2723 9.07369 62.3457 8.91904C62.4175 8.75656 62.5003 8.66535 62.5942 8.64539C62.6412 8.63541 62.6851 8.63017 62.7259 8.62968C62.7745 8.62752 62.82 8.63011 62.8625 8.63745C63.0401 8.66512 63.1919 8.76371 63.3179 8.93322C63.4517 9.10106 63.5106 9.30119 63.4946 9.5336C63.4769 9.75819 63.336 9.98034 63.0719 10.2C63.0439 10.2223 63.0143 10.2368 62.983 10.2435C62.9595 10.2485 62.9282 10.2551 62.8891 10.2634C62.7482 10.2934 62.6234 10.2831 62.5145 10.2326C62.4118 10.1727 62.327 10.1008 62.2601 10.0168C62.201 9.93125 62.1656 9.86106 62.154 9.80629ZM65.383 14.8982C64.9526 14.9897 64.5935 14.9352 64.3055 14.7347C64.0253 14.5325 63.8304 14.1732 63.7206 13.6567C63.6607 13.375 63.6459 13.0551 63.6761 12.697C63.7141 12.3372 63.7851 11.9786 63.8891 11.6212C64.0008 11.2621 64.1374 10.9427 64.2988 10.6631C64.4585 10.3756 64.634 10.1624 64.8254 10.0236C64.8953 9.96787 64.9716 9.92302 65.0544 9.88907C65.1433 9.84563 65.2308 9.81477 65.3169 9.79647C65.4108 9.77651 65.5142 9.76272 65.627 9.75508C65.7461 9.73796 65.8606 9.73814 65.9707 9.75565C66.1623 9.77217 66.3413 9.84454 66.5076 9.97277C66.6817 10.0993 66.8003 10.3113 66.8635 10.6087C66.8802 10.6869 66.8906 10.7746 66.8949 10.8719C66.8976 10.9613 66.8885 11.0532 66.8677 11.1476C66.8208 11.4274 66.7167 11.7072 66.5553 11.9868C66.4018 12.2648 66.2215 12.4749 66.0146 12.6171C65.9586 12.6617 65.901 12.6984 65.8417 12.7274C65.7886 12.7469 65.7307 12.7633 65.6681 12.7766C65.5038 12.8115 65.3502 12.8196 65.2071 12.8009C65.072 12.7806 64.9413 12.743 64.8151 12.688L64.7037 12.6258L64.67 12.7556C64.6468 12.916 64.6343 13.0495 64.6324 13.1562C64.6384 13.2612 64.6464 13.3372 64.6564 13.3842C64.6763 13.4781 64.701 13.5751 64.7305 13.6751C64.7583 13.7674 64.7984 13.8406 64.8508 13.8949C64.8904 13.9274 64.9362 13.9504 64.9881 13.9639C65.0479 13.9757 65.1169 13.9733 65.1952 13.9567C65.2421 13.9467 65.2852 13.9376 65.3243 13.9292C65.3696 13.9114 65.407 13.8953 65.4367 13.8808C65.5709 13.8196 65.6735 13.7446 65.7446 13.6559C65.8219 13.5577 65.9056 13.4704 65.9957 13.394L66.0376 13.3605L66.0184 13.3278C66.1365 13.2291 66.2173 13.1669 66.2609 13.1413C66.3029 13.1078 66.3339 13.0808 66.3541 13.0601C66.3787 13.0222 66.4106 12.9991 66.4498 12.9907C66.556 12.9518 66.6683 12.9606 66.7866 13.0173C66.9112 13.0644 66.9851 13.1428 67.0083 13.2523C67.0183 13.2993 66.9989 13.3811 66.9501 13.4978C66.9091 13.6128 66.8486 13.732 66.7685 13.8554C66.6945 13.9692 66.6125 14.0644 66.5224 14.1408C66.5006 14.1536 66.4797 14.1703 66.4595 14.1909C66.4377 14.2038 66.4167 14.2205 66.3966 14.2411L66.4083 14.2386C66.3578 14.3475 66.2974 14.4094 66.227 14.4244L66.1331 14.4443C66.1134 14.5058 66.0241 14.5861 65.8653 14.6853C65.7081 14.7923 65.5474 14.8633 65.383 14.8982ZM65.3921 11.9397C65.4625 11.9247 65.5226 11.8996 65.5724 11.8645C65.63 11.8277 65.6829 11.7879 65.731 11.7449C65.8906 11.572 65.9753 11.3741 65.9851 11.1511C65.995 10.9282 65.9413 10.772 65.8241 10.6824C65.8035 10.6622 65.7806 10.6507 65.7555 10.6479C65.7287 10.6372 65.6996 10.6352 65.6683 10.6419C65.5822 10.6602 65.4903 10.7084 65.3923 10.7864C65.3023 10.8628 65.2172 10.9627 65.1371 11.086C65.057 11.2094 64.9888 11.3506 64.9327 11.5098L64.8325 11.7887C64.8465 11.7776 64.8574 11.7712 64.8652 11.7695C64.8792 11.7583 64.8901 11.7519 64.8979 11.7503C64.9684 11.7353 65.0203 11.7488 65.0538 11.7908C65.0872 11.8327 65.1246 11.8738 65.1659 11.9141C65.215 11.9528 65.2904 11.9613 65.3921 11.9397ZM71.4391 13.3779C71.3234 13.4106 71.2147 13.4378 71.1129 13.4595C71.019 13.4794 70.9414 13.4796 70.8799 13.4599C70.7141 13.3725 70.6003 13.2985 70.5383 13.2381C70.4842 13.176 70.448 13.1019 70.4298 13.0158C70.4143 12.9046 70.3949 12.7942 70.3716 12.6846C70.3467 12.5673 70.3276 12.4773 70.3142 12.4147C70.2763 12.39 70.2212 12.4385 70.1489 12.5602C70.0766 12.6819 69.9879 12.803 69.8826 12.9235C69.6982 13.249 69.5255 13.4943 69.3643 13.6594C69.2014 13.8167 69.0434 13.9198 68.8902 13.9687C68.7387 14.0254 68.583 14.0626 68.4232 14.0802C68.279 14.0945 68.1389 14.0507 68.0027 13.9488C67.8744 13.8452 67.7637 13.7093 67.6706 13.5409C67.5854 13.3709 67.5324 13.1982 67.5114 13.0227C67.4823 12.6936 67.4912 12.3891 67.5381 12.1092C67.5832 11.8215 67.6768 11.5113 67.8187 11.1785C67.886 11.0334 67.9821 10.8698 68.107 10.6879C68.2397 10.5042 68.3867 10.3299 68.5479 10.1648C68.7074 9.99181 68.8557 9.86215 68.9927 9.77577C69.198 9.62581 69.3758 9.53894 69.5262 9.51516C69.6844 9.48972 69.8419 9.48076 69.9989 9.48828C70.1201 9.51977 70.212 9.52887 70.2746 9.51556C70.345 9.50059 70.3876 9.45065 70.4023 9.36575C70.4359 9.29317 70.4545 9.20743 70.458 9.10854C70.4615 9.00965 70.4815 8.91134 70.518 8.81362L70.6141 7.99578C70.6552 7.7662 70.7054 7.502 70.7646 7.20317C70.8237 6.90434 70.8919 6.57088 70.969 6.20279C71.0841 5.85935 71.2026 5.6665 71.3245 5.62424C71.4542 5.58031 71.6061 5.62163 71.7802 5.7482C71.8941 5.82214 71.9699 5.92871 72.0077 6.0679C72.0516 6.1976 72.0497 6.36159 72.0018 6.55986C71.9654 6.65758 71.93 6.77961 71.8956 6.92594C71.8596 7.06445 71.8169 7.22893 71.7674 7.41938C71.7246 7.64113 71.6778 7.86372 71.6272 8.08713C71.5844 8.30888 71.5418 8.55103 71.4994 8.81357C71.4947 8.94542 71.4825 9.09934 71.4626 9.27531C71.4506 9.44962 71.4431 9.60661 71.4401 9.74629C71.4432 9.87649 71.4408 9.99969 71.4327 10.1159C71.4309 10.2226 71.4143 10.2793 71.383 10.2859C71.3321 10.354 71.2983 10.4839 71.2818 10.6755C71.2636 10.8593 71.2558 11.0532 71.2582 11.2571C71.2685 11.4594 71.2752 11.6256 71.2783 11.7558C71.2826 11.8531 71.2992 11.9886 71.328 12.1624C71.3551 12.3284 71.3852 12.4896 71.4185 12.6461C71.4501 12.7948 71.4717 12.8966 71.4834 12.9513C71.515 13.1 71.5257 13.2081 71.5155 13.2757C71.5115 13.3338 71.486 13.3679 71.4391 13.3779ZM68.5892 13.0144C68.7692 12.9762 68.9217 12.8661 69.0466 12.6841C69.1776 12.4927 69.3227 12.2901 69.4817 12.0764C69.5741 11.934 69.668 11.7792 69.7633 11.6117C69.8569 11.4364 69.9396 11.2675 70.0113 11.105C70.091 10.9409 70.1512 10.8013 70.1922 10.6863C70.2332 10.5712 70.2504 10.4981 70.2437 10.4668C70.2354 10.4276 70.1966 10.3991 70.1274 10.3811C70.0659 10.3614 69.9944 10.3521 69.9128 10.3531C69.8296 10.3462 69.7583 10.3573 69.6991 10.3863C69.5229 10.4809 69.3878 10.5955 69.2937 10.73C69.2074 10.8629 69.0836 11.0691 68.9222 11.3488C68.7658 11.6519 68.65 11.9342 68.5747 12.1956C68.4994 12.4569 68.4619 12.6653 68.4622 12.8206C68.4686 12.9665 68.511 13.0311 68.5892 13.0144ZM29.0558 37.6237C28.9641 37.6922 28.8508 37.7367 28.7162 37.7572C28.5815 37.7777 28.3923 37.7729 28.1488 37.7429C28.1331 37.7462 28.0709 37.7226 27.962 37.6721C27.8531 37.6217 27.7418 37.5595 27.6279 37.4855C27.514 37.4116 27.4348 37.3466 27.3902 37.2907C27.2267 37.1373 27.1311 36.8796 27.1032 36.5175C27.0831 36.1537 27.1185 35.7045 27.2093 35.17C27.2391 35.0409 27.2897 34.8748 27.361 34.6715C27.4401 34.4666 27.5187 34.2781 27.5966 34.1062C27.6807 33.9247 27.7438 33.8173 27.7857 33.7838C27.7857 33.7838 27.8254 33.759 27.9049 33.7094C27.9843 33.6598 28.083 33.5857 28.2011 33.487C28.2369 33.463 28.2992 33.4293 28.3881 33.3859C28.4849 33.3408 28.5824 33.2996 28.6808 33.2623C28.7854 33.2156 28.8581 33.1919 28.8989 33.1914C29.057 33.166 29.2299 33.1906 29.4175 33.2652C29.6113 33.3303 29.778 33.4217 29.9175 33.5393C30.0553 33.649 30.1154 33.7589 30.0979 33.8689C30.1013 33.8846 30.0886 33.9404 30.0599 34.0365C30.0375 34.1231 30.0119 34.2144 29.9832 34.3104C29.9529 34.3987 29.9263 34.4657 29.9033 34.5115C29.8741 34.5667 29.8079 34.6013 29.7045 34.6151C29.6089 34.6272 29.5162 34.6142 29.4263 34.576C29.3364 34.5379 29.2775 34.4727 29.2498 34.3805C29.2208 34.3212 29.1496 34.275 29.0363 34.2418C28.9307 34.207 28.8779 34.1896 28.8779 34.1896C28.8153 34.2029 28.7465 34.283 28.6714 34.4298C28.5963 34.5766 28.5206 34.7399 28.4443 34.9197C28.3334 35.0905 28.2641 35.2647 28.2364 35.4424C28.2149 35.6105 28.2074 35.7675 28.2138 35.9133C28.2264 36.0497 28.2285 36.1556 28.22 36.231C28.2053 36.3159 28.2261 36.4137 28.2824 36.5244C28.3386 36.6352 28.3919 36.6934 28.4422 36.699C28.5143 36.6919 28.6073 36.668 28.7214 36.6274C28.8416 36.5773 28.9649 36.5225 29.0913 36.4629C29.2238 36.3939 29.3563 36.3248 29.4889 36.2557C29.6197 36.1788 29.735 36.1053 29.8345 36.035C29.9633 35.9095 30.0849 35.8469 30.1994 35.8471C30.3123 35.8394 30.3978 35.8376 30.4559 35.8416C30.5486 35.8546 30.6058 35.912 30.6274 36.0137C30.6491 36.1155 30.6371 36.2325 30.5917 36.3648C30.5445 36.4894 30.4619 36.601 30.3439 36.6997C30.232 36.7889 30.1335 36.8834 30.0484 36.9833C29.9694 37.0737 29.9341 37.1384 29.9424 37.1776C29.9111 37.1842 29.8784 37.2034 29.8443 37.2352C29.8163 37.2575 29.7898 37.2673 29.7646 37.2644C29.749 37.2678 29.6889 37.2928 29.5843 37.3396C29.4797 37.3863 29.3721 37.4378 29.2614 37.4941C29.1585 37.5487 29.09 37.5919 29.0558 37.6237ZM32.5573 36.5604C32.3804 36.459 32.2221 36.3495 32.0826 36.2319C31.9415 36.1065 31.8189 35.8954 31.7149 35.5986C31.6693 35.461 31.6434 35.2621 31.6371 35.0017C31.6308 34.7413 31.6455 34.4642 31.6812 34.1703C31.7153 33.8687 31.7621 33.5888 31.8218 33.3308C31.8814 33.0727 31.9544 32.8773 32.0406 32.7445C32.1096 32.6071 32.207 32.4883 32.3329 32.3879C32.4666 32.2859 32.6192 32.2534 32.7907 32.2906C32.8984 32.374 32.9713 32.5057 33.0096 32.6857C33.054 32.8562 33.0451 33.0258 32.9828 33.1944C32.8712 33.439 32.7908 33.7341 32.7416 34.0799C32.6986 34.4162 32.6841 34.7137 32.6982 34.9724C32.6817 35.1641 32.6882 35.3099 32.7176 35.41C32.7454 35.5022 32.8126 35.5492 32.9194 35.5511C33.0764 35.5586 33.2198 35.4831 33.3497 35.3247C33.4874 35.1645 33.6048 34.9474 33.7019 34.6732C33.8069 34.3974 33.8848 34.0905 33.9356 33.7525C33.9593 33.633 33.9671 33.4964 33.9589 33.3427C33.9586 33.1874 33.9666 33.0712 33.983 32.9941C33.9888 32.8293 34.0296 32.6938 34.1052 32.5878C34.1869 32.4723 34.2801 32.3911 34.3847 32.3444C34.4892 32.2976 34.5739 32.2919 34.6386 32.3272C34.7157 32.3435 34.8009 32.3786 34.8941 32.4324C34.9873 32.4862 35.0452 32.6047 35.0678 32.788C35.1294 33.0776 35.1192 33.3374 35.0372 33.5674C34.9553 33.7975 34.8954 34.0351 34.8575 34.2804C34.822 34.4597 34.7493 34.6755 34.6394 34.9279C34.5294 35.1802 34.4036 35.4155 34.2619 35.6338C34.128 35.8503 33.9934 36.0057 33.858 36.0999C33.6688 36.2874 33.4641 36.4208 33.2438 36.5004C33.0219 36.5721 32.793 36.5921 32.5573 36.5604ZM36.8044 36.1607C36.5151 36.1077 36.2953 36.0358 36.1452 35.945C36.0012 35.8448 35.9309 35.7452 35.9345 35.6463C35.9401 35.596 35.9584 35.5472 35.9892 35.4997C36.02 35.4523 36.1027 35.4183 36.2374 35.3979C36.3783 35.3679 36.601 35.3574 36.9055 35.3663C36.9915 35.348 37.0768 35.3258 37.1612 35.2997C37.2456 35.2736 37.3214 35.2452 37.3885 35.2146C37.4634 35.1823 37.5218 35.1494 37.5638 35.116C37.5996 35.092 37.6072 35.0699 37.5865 35.0498C37.5642 35.0218 37.5302 34.9963 37.4844 34.9733C37.4448 34.9409 37.4046 34.9249 37.3638 34.9254C37.3213 34.918 37.2845 34.9177 37.2532 34.9244C37.2292 34.8886 37.1857 34.8569 37.1226 34.8294C37.0673 34.8003 36.9995 34.7697 36.9191 34.7377C36.717 34.6335 36.5339 34.5415 36.3697 34.4619C36.2056 34.3823 36.1333 34.3118 36.153 34.2504C36.1463 34.2191 36.143 34.2034 36.143 34.2034C36.1414 34.1956 36.1405 34.1917 36.1405 34.1917C36.0857 34.2033 36.0191 34.1398 35.9405 34.0011C35.8603 33.8546 35.8069 33.7187 35.7803 33.5935C35.747 33.437 35.7451 33.2738 35.7744 33.104C35.8115 32.9326 35.866 32.7656 35.9378 32.6031C36.0174 32.439 36.1004 32.2905 36.1866 32.1576C36.3054 31.9852 36.4328 31.815 36.5688 31.647C36.711 31.4696 36.8683 31.3053 37.0407 31.1541C37.2208 31.0013 37.4255 30.8679 37.6548 30.7537C37.7594 30.7069 37.8821 30.6686 38.0229 30.6387C38.1638 30.6087 38.2697 30.6067 38.3406 30.6325C38.3949 30.58 38.4756 30.5751 38.5828 30.6178C38.6884 30.6526 38.7989 30.7109 38.9144 30.7927C39.03 30.8744 39.122 30.9612 39.1906 31.0529C39.2106 31.1468 39.2316 31.265 39.2537 31.4076C39.282 31.5406 39.2991 31.6596 39.3051 31.7647C39.311 31.8697 39.2866 31.9281 39.2319 31.9397C39.2319 31.9397 39.221 31.9461 39.1992 31.959C39.1835 31.9623 39.1798 31.9835 39.1882 32.0226C39.2048 32.1009 39.1652 32.2034 39.0695 32.33C38.9424 32.4634 38.819 32.5755 38.6993 32.6663C38.5796 32.7572 38.4787 32.7828 38.3966 32.7429C38.343 32.7216 38.2933 32.6995 38.2475 32.6765C38.2018 32.6535 38.1582 32.6219 38.117 32.5816C38.117 32.5816 38.1019 32.5684 38.0718 32.5421C38.0478 32.5063 38.0325 32.4727 38.0258 32.4414C38.0192 32.4101 38.0251 32.3803 38.0436 32.3518C38.0604 32.3155 38.0688 32.2974 38.0688 32.2974C38.1567 32.1723 38.2189 32.061 38.2554 31.9633C38.2997 31.8639 38.327 31.7804 38.3371 31.7128C38.3456 31.6374 38.3457 31.5801 38.3374 31.541C38.3274 31.494 38.3099 31.4691 38.2847 31.4663C38.2658 31.454 38.225 31.4545 38.1624 31.4678C38.1232 31.4761 38.0438 31.5257 37.9241 31.6166C37.8122 31.7058 37.6958 31.8123 37.5749 31.9362C37.4524 32.0522 37.3594 32.1537 37.2962 32.2408C37.2765 32.3022 37.2605 32.3424 37.2482 32.3614C37.2437 32.3787 37.2258 32.3907 37.1945 32.3973C37.1878 32.366 37.1691 32.3741 37.1383 32.4215C37.1075 32.469 37.0722 32.5337 37.0324 32.6158C36.9926 32.6979 36.9536 32.7839 36.9154 32.8738C36.8773 32.9637 36.8476 33.0354 36.8262 33.089C36.8334 33.1611 36.828 33.2318 36.81 33.301C36.7981 33.3608 36.8028 33.4211 36.8239 33.4821C36.8484 33.5587 36.9033 33.6247 36.9887 33.6801C37.0741 33.7356 37.195 33.804 37.3513 33.8852C37.6684 34.0305 37.9059 34.1477 38.0639 34.2368C38.2297 34.3242 38.3475 34.3973 38.4172 34.4561C38.487 34.5149 38.5372 34.5778 38.5678 34.6449C38.7524 34.8592 38.8129 35.0672 38.7495 35.2688C38.6843 35.4626 38.5561 35.6288 38.3648 35.7677C38.2949 35.8234 38.1654 35.8877 37.9764 35.9606C37.7891 36.0413 37.5851 36.1011 37.3643 36.1398C37.153 36.1847 36.9664 36.1917 36.8044 36.1607ZM41.8119 35.0963C41.6956 35.0883 41.5744 35.0568 41.4483 35.0018C41.3221 34.9469 41.1895 34.881 41.0505 34.8042C40.93 34.699 40.8393 34.5996 40.7786 34.5062C40.7162 34.405 40.6661 34.2848 40.6283 34.1456C40.5967 33.9969 40.5568 33.8091 40.5086 33.5822C40.4886 33.4883 40.476 33.3519 40.4707 33.1731C40.4732 32.9927 40.4741 32.8044 40.4733 32.6082C40.4803 32.4105 40.4884 32.237 40.4976 32.0878C40.5052 31.9308 40.5078 31.828 40.5057 31.7794C40.5075 31.6727 40.4559 31.6223 40.3509 31.6283C40.2458 31.6342 40.1315 31.6545 40.008 31.6889C39.8906 31.7138 39.8099 31.7187 39.7657 31.7036C39.7328 31.7024 39.7088 31.6666 39.6938 31.5962C39.6772 31.5179 39.6689 31.4788 39.6689 31.4788C39.6622 31.4475 39.6424 31.4313 39.6095 31.4301C39.5748 31.4211 39.5416 31.3995 39.5098 31.3654C39.4875 31.3374 39.4946 31.2746 39.5311 31.1768C39.5676 31.0791 39.6272 31.0133 39.71 30.9793C39.7771 30.9487 39.8802 30.9145 40.0194 30.8768C40.1569 30.8312 40.2919 30.7739 40.4245 30.7048C40.5632 30.6262 40.6617 30.5317 40.72 30.4212C40.7538 30.234 40.793 30.0335 40.8375 29.8196C40.8803 29.5978 40.925 29.4043 40.9717 29.239C41.0167 29.0659 41.0507 28.9564 41.0736 28.9106C41.1917 28.8119 41.3228 28.7554 41.467 28.7411C41.6095 28.719 41.7332 28.7622 41.8381 28.8708C41.8888 28.9173 41.9285 28.9497 41.9569 28.9682C41.9932 28.9851 42.0124 29.0178 42.0146 29.0664C42.0246 29.1133 42.0116 29.2061 41.9756 29.3446C41.9457 29.4736 41.8909 29.6774 41.8111 29.9561C41.7886 30.0427 41.7684 30.1206 41.7504 30.1899C41.7307 30.2513 41.7209 30.282 41.7209 30.282C41.7539 30.2832 41.8017 30.2771 41.8643 30.2638C41.9269 30.2505 42.0043 30.23 42.0965 30.2022C42.1793 30.1682 42.2707 30.1365 42.3707 30.1071C42.4691 30.0698 42.5591 30.0507 42.6407 30.0497C42.8207 30.0114 42.9645 30.034 43.0722 30.1175C43.1799 30.2009 43.2543 30.32 43.2954 30.4749C43.3294 30.5576 43.3139 30.6386 43.2489 30.7178C43.184 30.7971 43.0459 30.8591 42.8346 30.9041C42.7642 30.919 42.6633 30.9446 42.5319 30.9807C42.4005 31.0168 42.2653 31.0537 42.1261 31.0915C41.9869 31.1292 41.8681 31.1667 41.7697 31.204C41.6774 31.2318 41.633 31.2535 41.6363 31.2692C41.6162 31.2898 41.5903 31.3607 41.5588 31.4819C41.5335 31.5936 41.5093 31.7296 41.4861 31.89C41.4707 32.0486 41.4576 32.1986 41.4468 32.34C41.4486 32.6177 41.4643 32.8842 41.4941 33.1396C41.5238 33.395 41.5665 33.6149 41.6221 33.7994C41.6838 33.9744 41.7582 34.0935 41.8453 34.1568C41.9306 34.2123 42.0363 34.1898 42.1622 34.0895C42.2942 33.9796 42.412 33.8605 42.5156 33.7322C42.6315 33.5849 42.7453 33.5239 42.857 33.5492C42.9671 33.5667 43.048 33.6395 43.0997 33.7675C43.1576 33.8861 43.1515 34.0305 43.0814 34.2008C43.0191 34.3694 42.9127 34.5229 42.7622 34.6612C42.6116 34.7995 42.4505 34.9074 42.2789 34.9848C42.1089 35.07 41.9532 35.1072 41.8119 35.0963ZM44.9375 34.2724C44.8358 34.2941 44.7495 34.292 44.6786 34.2661C44.6155 34.2387 44.5334 34.1989 44.4323 34.1467C44.2504 34.0218 44.0933 33.8794 43.9612 33.7193C43.8369 33.5577 43.7723 33.4078 43.7675 33.2698C43.7777 33.2022 43.773 33.1418 43.7535 33.0887C43.7402 33.0261 43.7336 32.9948 43.7336 32.9948C43.6861 32.964 43.6694 32.943 43.6834 32.9319C43.6957 32.9129 43.7064 32.8861 43.7154 32.8515C43.7623 32.8415 43.7688 32.7951 43.7349 32.7124C43.7059 32.6531 43.7011 32.5151 43.7205 32.2983C43.746 32.0721 43.7975 31.8526 43.8749 31.6398C43.9053 31.5516 43.9541 31.4349 44.0214 31.2897C44.087 31.1368 44.1613 30.986 44.2442 30.8375C44.3333 30.6795 44.4165 30.5515 44.4938 30.4532C44.6545 30.2473 44.8062 30.076 44.9489 29.9394C45.0994 29.8011 45.2566 29.6941 45.4204 29.6183C45.5843 29.5426 45.7562 29.4856 45.9362 29.4474C46.124 29.4075 46.2899 29.4376 46.4338 29.5379C46.6305 29.5779 46.7781 29.6569 46.8768 29.775C46.9833 29.8913 47.0708 30.0527 47.1392 30.259C47.2126 30.4887 47.2506 30.7833 47.2534 31.1425C47.2545 31.494 47.1459 31.926 46.9277 32.4386C46.792 32.7619 46.6468 33.0217 46.4923 33.2181C46.3378 33.4146 46.1612 33.6034 45.9625 33.7847C45.8215 33.9292 45.6595 34.0331 45.4767 34.0965C45.2939 34.1599 45.1142 34.2185 44.9375 34.2724ZM45.8304 32.5859C45.9709 32.4007 46.0573 32.2106 46.0895 32.0156C46.1295 31.819 46.1667 31.5903 46.2012 31.3294C46.2226 31.2758 46.2255 31.1934 46.21 31.0822C46.2024 30.9693 46.1839 30.8628 46.1544 30.7627C46.1233 30.6548 46.0826 30.5981 46.0323 30.5924C45.9502 30.5526 45.8773 30.5558 45.8136 30.6021C45.7481 30.6405 45.6689 30.7105 45.576 30.8121C45.3828 31.0576 45.212 31.3311 45.0634 31.6326C44.921 31.9246 44.8498 32.2628 44.8497 32.6472C44.8678 32.8478 44.919 32.9923 45.0032 33.0807C45.0936 33.1597 45.2089 33.1638 45.3493 33.0931C45.4958 33.0128 45.6562 32.8438 45.8304 32.5859ZM48.9375 33.1032C48.7755 33.0722 48.6343 33.0041 48.5137 32.8989C48.3994 32.7842 48.3223 32.6329 48.2823 32.4451C48.2657 32.3668 48.2531 32.2305 48.2445 32.036C48.2358 31.8416 48.234 31.6211 48.2388 31.3747C48.2437 31.1283 48.2519 30.8976 48.2635 30.6825C48.3118 30.525 48.3327 30.3733 48.3262 30.2275C48.3276 30.08 48.325 29.9906 48.3183 29.9593C48.314 29.8621 48.3148 29.731 48.3206 29.5662C48.3265 29.4014 48.3357 29.2522 48.3482 29.1187C48.3669 28.9757 48.3824 28.8947 48.3947 28.8757C48.4255 28.8283 48.487 28.7907 48.5793 28.7629C48.6715 28.7351 48.7679 28.7269 48.8684 28.7382C48.9673 28.7417 49.0408 28.7793 49.0887 28.8509C49.1947 28.9265 49.2716 29.0574 49.3194 29.2435C49.3749 29.428 49.3863 29.6546 49.3534 29.9233C49.3163 30.0948 49.2849 30.2936 49.2594 30.5199C49.2339 30.7461 49.2129 30.955 49.1964 31.1467C49.186 31.3288 49.1836 31.452 49.189 31.5163L48.764 31.5943C48.8704 31.4409 48.9682 31.2851 49.0573 31.1272C49.1447 30.9614 49.2075 30.8335 49.2456 30.7436C49.3404 30.5354 49.4223 30.3626 49.4912 30.2252C49.5663 30.0784 49.6638 29.9023 49.7838 29.6969C49.902 29.4836 50.0436 29.3227 50.2086 29.214C50.372 29.0975 50.4967 29.0301 50.5828 29.0118C50.7616 29.0065 50.9333 29.064 51.0979 29.1844C51.2687 29.2953 51.3997 29.4883 51.4909 29.7634C51.5142 29.8729 51.5299 30.0045 51.538 30.1582C51.554 30.3102 51.5619 30.3862 51.5619 30.3862C51.5619 30.3862 51.6079 30.2947 51.6998 30.1115C51.7996 29.9268 51.9383 29.7133 52.1158 29.4711C52.2412 29.3299 52.3726 29.2365 52.5102 29.191C52.646 29.1375 52.7812 29.1579 52.9157 29.252C53.1424 29.3183 53.3319 29.4784 53.484 29.7323C53.6361 29.9862 53.7331 30.2887 53.775 30.6396C53.7948 30.8481 53.8297 31.0124 53.8798 31.1326C53.936 31.2433 53.9898 31.3423 54.041 31.4296C54.1727 31.5488 54.215 31.6707 54.1678 31.7952C54.119 31.9119 54.0672 31.9761 54.0125 31.9877C53.9342 32.0044 53.8135 32.0137 53.6504 32.0156C53.4872 32.0176 53.3308 31.9936 53.1811 31.9436C53.0393 31.892 52.9542 31.7996 52.926 31.6666L52.7713 30.9389C52.7347 30.7667 52.7002 30.6432 52.668 30.5682C52.6418 30.4838 52.6106 30.4332 52.5743 30.4164C52.4783 30.3877 52.3801 30.4454 52.2799 30.5894C52.1796 30.7334 52.0784 30.9307 51.9763 31.1814C51.8804 31.4227 51.7785 31.6938 51.6708 31.9947C51.5736 32.2689 51.4839 32.4434 51.4017 32.5181C51.3178 32.585 51.2269 32.6003 51.1292 32.5638C50.9454 32.5456 50.8201 32.4945 50.7532 32.4106C50.6924 32.3172 50.6644 32.2046 50.6691 32.0727C50.6799 31.9314 50.6903 31.7492 50.7001 31.5263C50.7178 31.3017 50.7333 31.0858 50.7465 30.8785C50.758 30.6634 50.7616 30.5073 50.7573 30.41C50.7127 30.3541 50.6538 30.3462 50.5805 30.3863C50.5134 30.4169 50.4466 30.4679 50.3799 30.5393C50.2993 30.6219 50.2118 30.71 50.1172 30.8037C50.0304 30.8958 49.9407 31.0702 49.8481 31.3271C49.7858 31.4957 49.7151 31.6825 49.636 31.8875C49.5552 32.0846 49.4789 32.2643 49.4071 32.4268C49.3432 32.5876 49.2857 32.7021 49.2347 32.7702C49.2099 32.9227 49.1782 33.0235 49.1395 33.0726C49.0992 33.1139 49.0319 33.1241 48.9375 33.1032ZM56.3226 32.1592C55.8922 32.2506 55.5331 32.1961 55.2451 31.9956C54.9649 31.7935 54.77 31.4341 54.6602 30.9177C54.6003 30.636 54.5855 30.3161 54.6157 29.958C54.6537 29.5982 54.7247 29.2396 54.8287 28.8822C54.9404 28.5231 55.077 28.2037 55.2384 27.924C55.3981 27.6365 55.5736 27.4234 55.765 27.2846C55.8349 27.2288 55.9112 27.184 55.994 27.15C56.0829 27.1066 56.1704 27.0757 56.2565 27.0574C56.3504 27.0375 56.4538 27.0237 56.5666 27.016C56.6857 26.9989 56.8002 26.9991 56.9103 27.0166C57.1019 27.0331 57.2808 27.1055 57.4471 27.2337C57.6213 27.3603 57.7399 27.5723 57.8031 27.8696C57.8198 27.9479 57.8302 28.0356 57.8345 28.1328C57.8372 28.2222 57.8281 28.3141 57.8073 28.4085C57.7604 28.6884 57.6563 28.9681 57.4949 29.2478C57.3414 29.5258 57.1611 29.7359 56.9541 29.878C56.8982 29.9226 56.8406 29.9594 56.7813 29.9884C56.7282 30.0078 56.6703 30.0242 56.6077 30.0375C56.4434 30.0724 56.2897 30.0806 56.1467 30.0619C56.0116 30.0416 55.8809 30.0039 55.7547 29.9489L55.6433 29.8867L55.6096 30.0166C55.5864 30.1769 55.5739 30.3104 55.572 30.4172C55.578 30.5222 55.586 30.5982 55.596 30.6452C55.6159 30.7391 55.6406 30.836 55.6701 30.9361C55.6979 31.0283 55.738 31.1016 55.7904 31.1559C55.83 31.1884 55.8758 31.2114 55.9277 31.2248C55.9875 31.2367 56.0565 31.2343 56.1348 31.2176C56.1817 31.2077 56.2248 31.1985 56.2639 31.1902C56.3092 31.1724 56.3466 31.1563 56.3763 31.1418C56.5105 31.0805 56.6131 31.0056 56.6842 30.9168C56.7615 30.8186 56.8452 30.7313 56.9353 30.6549L56.9772 30.6215L56.958 30.5887C57.0761 30.49 57.1569 30.4279 57.2005 30.4022C57.2425 30.3688 57.2735 30.3417 57.2937 30.3211C57.3183 30.2831 57.3502 30.26 57.3893 30.2517C57.4956 30.2128 57.6079 30.2216 57.7262 30.2782C57.8508 30.3254 57.9247 30.4037 57.9479 30.5133C57.9579 30.5602 57.9385 30.642 57.8897 30.7587C57.8487 30.8738 57.7882 30.993 57.7081 31.1163C57.6341 31.2302 57.5521 31.3253 57.462 31.4017C57.4402 31.4145 57.4192 31.4313 57.3991 31.4519C57.3773 31.4647 57.3563 31.4814 57.3362 31.5021L57.3479 31.4996C57.2974 31.6085 57.237 31.6704 57.1666 31.6853L57.0727 31.7053C57.053 31.7667 56.9637 31.847 56.8049 31.9462C56.6477 32.0533 56.487 32.1242 56.3226 32.1592ZM56.3317 29.2006C56.4021 29.1857 56.4622 29.1606 56.512 29.1255C56.5696 29.0887 56.6225 29.0488 56.6706 29.0059C56.8302 28.833 56.9149 28.635 56.9247 28.4121C56.9346 28.1892 56.8809 28.0329 56.7637 27.9433C56.7431 27.9232 56.7202 27.9117 56.6951 27.9088C56.6683 27.8982 56.6392 27.8962 56.6079 27.9028C56.5218 27.9211 56.4298 27.9693 56.3319 28.0474C56.2419 28.1238 56.1568 28.2236 56.0767 28.347C55.9965 28.4703 55.9284 28.6116 55.8723 28.7707L55.7721 29.0497C55.7861 29.0385 55.797 29.0321 55.8048 29.0305C55.8188 29.0193 55.8297 29.0129 55.8375 29.0112C55.908 28.9963 55.9599 29.0098 55.9934 29.0517C56.0268 29.0937 56.0642 29.1348 56.1055 29.1751C56.1546 29.2137 56.23 29.2222 56.3317 29.2006ZM59.1681 31.0023C59.086 30.9625 58.9928 30.9087 58.8884 30.8409C58.7919 30.7715 58.7387 30.656 58.7289 30.4945C58.7058 30.2704 58.6964 30.072 58.7006 29.8994C58.7031 29.7189 58.7085 29.5133 58.7167 29.2826C58.7124 29.1853 58.7174 29.0166 58.7318 28.7764C58.7539 28.5345 58.7837 28.2705 58.8211 27.9845C58.8584 27.6985 58.903 27.4273 58.9548 27.1709C59.005 26.9067 59.0567 26.7076 59.11 26.5736C59.1795 26.477 59.2964 26.4113 59.4607 26.3764C59.6329 26.3398 59.7569 26.3461 59.8328 26.3954C59.9338 26.4475 59.9878 26.5669 59.9948 26.7535C60.0001 26.9324 59.9479 27.2256 59.8383 27.6333C59.8191 27.7355 59.7899 27.8481 59.7506 27.9709C59.7174 28.0843 59.6966 28.1787 59.6881 28.2541C59.6779 28.3217 59.6916 28.3474 59.729 28.3313C59.7577 28.2352 59.823 28.1191 59.9249 27.983C60.0251 27.839 60.134 27.6972 60.2516 27.5577C60.3692 27.4182 60.4814 27.2921 60.5883 27.1795C60.6952 27.0668 60.7697 26.9937 60.8116 26.9602C60.8659 26.9078 60.9297 26.8615 61.0029 26.8214C61.0824 26.7718 61.1361 26.7359 61.164 26.7136C61.3257 26.5892 61.5147 26.5164 61.731 26.4949C61.9534 26.464 62.1006 26.5022 62.1725 26.6096C62.1936 26.6706 62.227 26.7125 62.2728 26.7355C62.3264 26.7568 62.3532 26.7675 62.3532 26.7675C62.3845 26.7609 62.4027 26.7693 62.4077 26.7927C62.4205 26.8146 62.4269 26.8255 62.4269 26.8255C62.4385 26.8802 62.4004 26.9701 62.3125 27.0951C62.2324 27.2185 62.1305 27.2974 62.007 27.3318C61.9069 27.3613 61.8211 27.4 61.7495 27.4479C61.6779 27.4958 61.5923 27.5549 61.4927 27.6252C61.232 27.8605 60.9944 28.0705 60.7801 28.2551C60.5737 28.438 60.3743 28.693 60.1821 29.0201C60.1407 29.0944 60.0944 29.1655 60.0435 29.2336C59.9925 29.3017 59.9466 29.3933 59.9056 29.5083C59.8748 29.5557 59.8539 29.6501 59.8431 29.7915C59.8322 29.9328 59.8245 30.0694 59.8198 30.2013C59.8213 30.3236 59.8245 30.3966 59.8295 30.42C59.8295 30.42 59.8261 30.4617 59.8192 30.5449C59.8107 30.6203 59.7866 30.6991 59.7468 30.7811C59.6795 30.9263 59.6022 31.0245 59.5149 31.0758C59.4355 31.1254 59.3199 31.1009 59.1681 31.0023ZM64.3605 30.3034C64.1101 30.3567 63.8676 30.351 63.633 30.2863C63.4046 30.2122 63.2103 30.1063 63.0502 29.9685C62.8884 29.823 62.7909 29.672 62.7576 29.5155C62.7427 29.4451 62.7436 29.3917 62.7604 29.3554C62.785 29.3174 62.8248 29.2927 62.8795 29.281C62.9203 29.2805 62.9714 29.2901 63.0329 29.3098C63.0943 29.3294 63.1566 29.353 63.2196 29.3805C63.3631 29.4399 63.5117 29.4656 63.6654 29.4575C63.8191 29.4493 63.9504 29.4132 64.0595 29.3492C64.1669 29.2773 64.2184 29.1927 64.2141 29.0955C64.2075 29.0642 64.1777 29.001 64.1248 28.9059C64.0718 28.8108 64.0119 28.7213 63.945 28.6374C63.6878 28.3895 63.5083 28.1414 63.4065 27.8931C63.303 27.637 63.2151 27.3776 63.1429 27.1149C63.1196 27.0054 63.1447 26.8733 63.2182 26.7186C63.29 26.5561 63.3861 26.3926 63.5065 26.2279C63.6409 26.0522 63.7926 25.8809 63.9616 25.7141C64.1384 25.5456 64.3155 25.3976 64.4928 25.2699C64.6702 25.1423 64.8237 25.0565 64.9534 25.0126C65.0942 24.9826 65.2446 24.9588 65.4044 24.9412C65.5704 24.9141 65.6858 24.9182 65.7505 24.9535C65.8784 25.0163 66.0101 25.1355 66.1455 25.3112C66.281 25.4869 66.3629 25.6412 66.3912 25.7743C66.4045 25.8369 66.3859 25.9226 66.3354 26.0315C66.2911 26.1309 66.2532 26.2411 66.2217 26.3623C66.2021 26.4238 66.1872 26.4883 66.177 26.5559C66.1668 26.6235 66.1528 26.6919 66.1348 26.7611C66.1111 26.8807 66.035 26.9459 65.9065 26.9569C65.7841 26.9584 65.6612 26.919 65.5379 26.8389C65.4129 26.751 65.3354 26.6366 65.3055 26.4958C65.2805 26.3784 65.2941 26.2692 65.3462 26.1681C65.3984 26.0671 65.4211 26.0009 65.4145 25.9696C65.4111 25.954 65.4008 25.9439 65.3835 25.9394C65.3662 25.9349 65.338 25.9368 65.2988 25.9451C65.2441 25.9568 65.1591 25.9994 65.0438 26.0729C64.9348 26.137 64.822 26.2223 64.7056 26.3288C64.5893 26.4354 64.4879 26.555 64.4017 26.6879C64.3417 26.7906 64.2951 26.8986 64.262 27.012C64.235 27.1159 64.2331 27.2226 64.2564 27.3321C64.2797 27.4417 64.3267 27.5667 64.3975 27.707C64.4743 27.8379 64.5502 27.9445 64.6249 28.0267C64.6439 28.039 64.6765 28.0771 64.7228 28.1409C64.7752 28.1951 64.8349 28.2643 64.9018 28.3482C65.3177 28.8813 65.4587 29.3135 65.3246 29.6446C65.1983 29.9741 64.8769 30.1937 64.3605 30.3034Z" fill="#16A085"/>
</svg>
